<svg width="269" height="131" viewBox="0 0 269 131" fill="none" xmlns="http://www.w3.org/2000/svg">
<rect width="268.5" height="130.029" transform="scale(1.00186)" fill="#110D3C"/>
<g clip-path="url(#clip0_0_711)">
<path d="M60.5329 74.3608C60.7784 71.2106 58.4055 69.206 57.3009 68.4287C56.6464 67.9787 56.0327 67.5287 55.419 67.0786L32.6317 49.9779C29.8906 47.9323 28.0496 45.6413 26.8632 43.9231C24.5722 40.4865 24.3267 36.0272 26.3723 32.4271C26.4132 32.3453 26.4541 32.2634 26.5359 32.1816C28.4587 28.9497 31.6907 26.6996 35.3318 25.7995C43.7185 23.754 49.1188 29.1133 49.1188 29.1133C57.26 37.0909 51.6961 48.5051 51.6961 48.5051C57.0146 46.5414 57.5464 41.1411 57.5464 41.1411C60.0829 29.3179 51.287 22.0357 51.287 22.0357C40.4047 12.2171 28.6224 18.5174 28.6224 18.5174C15.94 25.1859 16.7173 36.9273 17.0446 39.5456C17.0855 39.9138 17.1264 40.3229 17.1673 40.6911C17.781 48.4642 24.2858 53.128 24.2858 53.128L51.9416 73.1334C51.9416 73.1334 56.81 76.9791 58.8965 79.761C59.5101 80.7429 59.7965 81.3975 59.7965 81.3975L60.5329 74.3608Z" fill="white"/>
<path d="M16.5538 55.91C16.3083 59.0601 18.6812 61.0647 19.7858 61.842C20.4403 62.2921 21.054 62.7421 21.6677 63.1921L44.455 80.3338C47.1961 82.3793 49.0371 84.6703 50.2235 86.3886C52.5554 89.8251 52.7599 94.2844 50.7144 97.8846C50.6735 97.9664 50.6326 98.0482 50.5508 98.13C48.6279 101.362 45.396 103.612 41.7549 104.512C33.3682 106.558 27.9679 101.198 27.9679 101.198C19.8267 93.2207 25.3905 81.8066 25.3905 81.8066C20.0721 83.7703 19.5403 89.1705 19.5403 89.1705C17.0038 100.994 25.7997 108.276 25.7997 108.276C36.682 118.095 48.4643 111.794 48.4643 111.794C61.1467 105.126 60.3694 93.3844 60.0421 90.7661C60.0012 90.3979 59.9603 89.9887 59.9194 89.6206C59.3057 81.8475 52.7599 77.2245 52.7599 77.2245L25.1451 57.1373C25.1451 57.1373 20.2767 53.2917 18.1902 50.5097C17.5766 49.5279 17.2902 48.8733 17.2902 48.8733L16.5538 55.91Z" fill="white"/>
<path d="M44.1278 39.0137C43.9641 41.3048 41.9595 43.0639 39.6276 42.9003C37.3366 42.7366 35.5774 40.732 35.741 38.4001C35.9047 36.1091 37.9093 34.3499 40.2412 34.5135C42.5322 34.6772 44.2914 36.6818 44.1278 39.0137Z" fill="white"/>
<path d="M41.3457 92.2388C41.1821 94.5298 39.1775 96.289 36.8455 96.1254C34.5545 95.9617 32.7954 93.9571 32.959 91.6252C33.1226 89.2933 35.1273 87.575 37.4592 87.7386C39.7911 87.9432 41.5094 89.9478 41.3457 92.2388Z" fill="white"/>
<path d="M70.7609 57.7511H87.5753V61.8831H75.6702V67.2834H86.1025V71.3745H75.6702V81.234H70.7609V57.7511Z" fill="white"/>
<path d="M95.2256 81.2749H90.3163V57.7102H95.2256V81.2749Z" fill="white"/>
<path d="M117.276 61.8831H104.799V66.8742H116.254V70.9653H104.799V77.0202H117.849V81.2749H100.012V57.7102H117.276V61.8831Z" fill="white"/>
<path d="M121.695 57.7102H126.604V77.0202H138.386V81.2749H121.695V57.7102Z" fill="white"/>
<path d="M157.287 57.7102H164.365V81.2749H159.783V65.3196C159.783 64.8696 159.783 64.215 159.783 63.3968C159.783 62.5786 159.783 61.924 159.783 61.474L155.323 81.234H150.537L146.119 61.474C146.119 61.924 146.119 62.5786 146.119 63.3968C146.119 64.215 146.119 64.8696 146.119 65.3196V81.2749H141.537V57.7102H148.696L152.992 76.2428L157.287 57.7102Z" fill="white"/>
<path d="M186.375 61.8831H173.897V66.8742H185.352V70.9653H173.897V77.0202H186.948V81.2749H169.111V57.7102H186.375V61.8831Z" fill="white"/>
<path d="M190.712 57.7102H195.866L205.235 74.1564V57.7102H209.817V81.2749H204.908L195.335 64.5423V81.2749H190.753V57.7102H190.712Z" fill="white"/>
<path d="M231.541 57.7102V61.8831H224.504V81.2749H219.554V61.8831H212.476V57.7102H231.541Z" fill="white"/>
<path d="M251.874 61.8831H239.396V66.8742H250.851V70.9653H239.396V77.0202H252.446V81.2749H234.609V57.7102H251.874V61.8831Z" fill="white"/>
</g>
<defs>
<clipPath id="clip0_0_711">
<rect width="235.454" height="96.9828" fill="white" transform="translate(16.554 16.5538) scale(1.00186)"/>
</clipPath>
</defs>
</svg>
