<svg width="32" height="27" viewBox="0 0 32 27" fill="none" xmlns="http://www.w3.org/2000/svg">
<path d="M31.8577 3.17161C30.8226 3.61748 29.7344 3.92797 28.6199 4.09538C29.141 4.00599 29.9076 3.06731 30.2128 2.68737C30.6764 2.11427 31.0297 1.46002 31.2548 0.75787C31.2548 0.705722 31.3069 0.631224 31.2548 0.593975C31.2286 0.579629 31.1991 0.572112 31.1692 0.572112C31.1393 0.572112 31.1099 0.579629 31.0836 0.593975C29.8735 1.24987 28.5856 1.75047 27.2504 2.08394C27.2039 2.09817 27.1543 2.09944 27.1071 2.08763C27.0599 2.07582 27.0168 2.05136 26.9824 2.01689C26.8785 1.89302 26.7666 1.77606 26.6475 1.66675C26.1029 1.17837 25.485 0.778662 24.8165 0.482227C23.914 0.111657 22.9392 -0.0488289 21.9657 0.0128896C21.0211 0.0725982 20.0989 0.326182 19.2564 0.75787C18.4268 1.213 17.6976 1.8313 17.1128 2.57562C16.4976 3.34172 16.0534 4.2308 15.8102 5.18306C15.6096 6.08884 15.5869 7.02501 15.7432 7.93948C15.7432 8.09593 15.7432 8.11828 15.6092 8.09593C10.3022 7.3137 5.94798 5.4289 2.39014 1.38365C2.23383 1.20486 2.15196 1.20486 2.02542 1.38365C0.477238 3.73779 1.229 7.4627 3.16423 9.3028C3.42474 9.54864 3.6927 9.78704 3.97554 10.0105C3.08825 9.94748 2.22263 9.70682 1.42997 9.3028C1.2811 9.20595 1.19923 9.2581 1.19178 9.43689C1.17068 9.68477 1.17068 9.934 1.19178 10.1819C1.34709 11.3698 1.81484 12.4952 2.54719 13.4428C3.27954 14.3905 4.25022 15.1265 5.35997 15.5755C5.6305 15.6915 5.91239 15.7789 6.20105 15.8363C5.37964 15.9981 4.53718 16.0233 3.70758 15.9108C3.52895 15.8735 3.46196 15.9704 3.52895 16.1417C4.6231 19.1216 6.99747 20.0305 8.73918 20.5371C8.97736 20.5744 9.21554 20.5744 9.4835 20.634C9.4835 20.634 9.4835 20.634 9.43884 20.6787C8.92526 21.6173 6.84861 22.2506 5.89588 22.5784C4.15691 23.2035 2.30284 23.4425 0.462352 23.2786C0.172067 23.2339 0.105078 23.2414 0.0306465 23.2786C-0.0437854 23.3159 0.0306465 23.3978 0.112522 23.4723C0.484681 23.7182 0.856841 23.9342 1.24389 24.1428C2.39613 24.7718 3.61428 25.2715 4.87616 25.6328C11.4113 27.4356 18.7652 26.1096 23.6702 21.2299C27.5258 17.4007 28.8805 12.1188 28.8805 6.82946C28.8805 6.62832 29.1261 6.50912 29.2675 6.40482C30.2429 5.64412 31.1029 4.74575 31.8205 3.73779C31.9448 3.58754 32.0085 3.39624 31.9991 3.20141C31.9991 3.08966 31.9991 3.11201 31.8577 3.17161Z" fill="white"/>
</svg>
