<svg width="70" height="45" viewBox="0 0 70 45" fill="none" xmlns="http://www.w3.org/2000/svg">
<path d="M0 26.4212C0 37.4657 6.22223 44.1546 15.7111 44.1546C24.1111 44.1546 29.7111 39.0213 29.7111 31.7101C29.7111 25.3324 24.7334 20.199 17.8889 20.199C16.8 20.199 15.5556 20.3546 14.3111 20.6657C16.1778 13.5101 23.1778 9.93234 32.3556 11.1768V0.28789C15.0889 -2.04545 0 10.0879 0 26.4212ZM37.6445 26.4212C37.6445 37.4657 43.8667 44.1546 53.3556 44.1546C61.9112 44.1546 67.3556 39.0213 67.3556 31.7101C67.3556 25.3324 62.3778 20.199 55.5334 20.199C54.4445 20.199 53.2 20.3546 51.9556 20.6657C53.8223 13.5101 60.8223 9.93234 70.0001 11.1768V0.28789C52.7334 -2.04545 37.6445 10.0879 37.6445 26.4212Z" fill="#FFDEA2"/>
</svg>
