<svg width="74" height="62" viewBox="0 0 74 62" fill="none" xmlns="http://www.w3.org/2000/svg">
<g clip-path="url(#clip0_0_623)">
<path d="M27.6963 2.20245C26.4714 -0.000279134 23.289 -0.000279134 22.0651 2.20245L1.00837 40.3898C0.0286738 42.3483 1.49777 44.551 3.70141 44.551H17.902V58.9932C17.902 60.4623 19.1269 61.6862 20.596 61.6862H28.9202C30.3893 61.6862 31.6133 60.4623 31.6133 58.9932V44.551H27.6963C25.9821 44.551 24.7581 43.3271 24.513 41.858C24.513 41.3686 24.513 40.8792 24.7581 40.3844L36.5109 19.0879L27.6963 2.20245Z" fill="white"/>
<path d="M46.3044 2.20245C47.5293 -0.000279134 50.7117 -0.000279134 51.9357 2.20245L72.9924 40.3898C73.9721 42.3483 72.503 44.551 70.2993 44.551H56.3429V58.9932C56.3429 60.4623 55.119 61.6862 53.6472 61.6862H44.8353C43.3662 61.6862 42.1423 60.4623 42.1423 58.9932V44.551H46.0602C47.7735 44.551 48.9975 43.3271 49.2426 41.858C49.2426 41.3686 49.2426 40.8792 48.9975 40.3844L37.2456 19.0934L46.3044 2.20245Z" fill="white"/>
</g>
<defs>
<clipPath id="clip0_0_623">
<rect width="73.9195" height="61.6193" fill="white" transform="scale(1.00109)"/>
</clipPath>
</defs>
</svg>
