<svg width="32" height="29" viewBox="0 0 32 29" fill="none" xmlns="http://www.w3.org/2000/svg">
<path d="M32 14.4124C32 8.069 28.3085 2.588 22.9565 0V28.8247C28.3085 26.2367 32 20.7557 32 14.4124Z" fill="#D80027"/>
<path d="M0 14.4124C0 20.7557 3.69156 26.2367 9.0435 28.8247V0C3.69156 2.588 0 8.069 0 14.4124Z" fill="#D80027"/>
<path d="M18.7826 16.4995L21.5652 15.1082L20.1739 14.4125V13.0212L17.3913 14.4125L18.7826 11.6299H17.3913L16 9.54297L14.6087 11.6299H13.2174L14.6087 14.4125L11.8261 13.0212V14.4125L10.4348 15.1082L13.2174 16.4995L12.5218 17.8908H15.3044V19.9777H16.6956V17.8908H19.4783L18.7826 16.4995Z" fill="#D80027"/>
</svg>
