<svg width="24" height="24" viewBox="0 0 24 24" fill="none" xmlns="http://www.w3.org/2000/svg">
<path d="M12.0377 3.29004C7.09761 3.29004 3.07723 7.16236 3.07548 11.9213C3.07432 13.4432 3.48774 14.9285 4.27161 16.2367L3 20.7094L7.75142 19.5092C9.07309 20.2006 10.5427 20.5612 12.0343 20.5602H12.0377C16.9779 20.5602 20.9983 16.6873 21 11.9283C21.0012 9.62314 20.0698 7.45327 18.3772 5.82223C16.6852 4.19062 14.4352 3.29062 12.0377 3.29004ZM12.0377 19.1022H12.0348C10.6982 19.1022 9.3871 18.7561 8.24323 18.1023L7.97032 17.9467L5.15187 18.6586L5.90439 16.0108L5.72729 15.7397C4.98343 14.6052 4.58745 13.2779 4.58806 11.9213C4.58981 7.96539 7.932 4.74804 12.0406 4.74804C14.0299 4.74862 15.9002 5.49591 17.3071 6.85172C18.714 8.20752 19.488 10.0104 19.4868 11.9277C19.4851 15.8837 16.1435 19.1022 12.0372 19.1022H12.0377ZM16.1237 13.7283C15.8996 13.6209 14.7987 13.0989 14.5932 13.0263C14.3882 12.9549 14.239 12.9177 14.0897 13.1337C13.9411 13.3497 13.5114 13.8357 13.3814 13.9791C13.2501 14.1231 13.1195 14.1406 12.8954 14.0331C12.6712 13.9251 11.9495 13.6975 11.0948 12.9624C10.4288 12.3911 9.97935 11.685 9.84871 11.4684C9.71806 11.253 9.83477 11.1363 9.94684 11.0289C10.0473 10.9331 10.171 10.7775 10.2825 10.6515C10.3939 10.5255 10.4311 10.4355 10.5066 10.2915C10.5809 10.148 10.5437 10.0215 10.4874 9.91404C10.4311 9.80546 9.984 8.74404 9.79645 8.31262C9.61529 7.89223 9.43064 7.94856 9.29303 7.94159C9.16239 7.93578 9.01374 7.93404 8.86335 7.93404C8.71529 7.93404 8.472 7.98804 8.26645 8.20404C8.06148 8.42004 7.48258 8.94146 7.48258 10.0029C7.48258 11.0649 8.28503 12.0903 8.3971 12.2343C8.50916 12.3777 9.97645 14.5569 12.223 15.4917C12.7572 15.7129 13.1741 15.8459 13.4998 15.9458C14.0363 16.1101 14.5246 16.0863 14.9102 16.0311C15.3399 15.969 16.2352 15.5097 16.421 15.0063C16.608 14.5029 16.608 14.0709 16.5523 13.9809C16.4977 13.8909 16.3479 13.8369 16.1237 13.7283Z" fill="black"/>
</svg>
