<svg width="32" height="32" viewBox="0 0 32 32" fill="none" xmlns="http://www.w3.org/2000/svg">
<g clip-path="url(#clip0_0_503)">
<path d="M16 32C24.8366 32 32 24.8366 32 16C32 7.16344 24.8366 0 16 0C7.16344 0 0 7.16344 0 16C0 24.8366 7.16344 32 16 32Z" fill="#F0F0F0"/>
<path d="M31.906 17.7388L31.9056 17.7383L31.9055 17.7388H31.906Z" fill="#0052B4"/>
<path d="M31.9056 17.7389C31.9056 17.7388 31.9057 17.7387 31.9057 17.7384L14.3591 0.0830078C13.5676 0.163695 12.793 0.30207 12.0398 0.493883C5.11862 2.25607 0 15.9998 0 15.9998C0 15.9998 22.3999 30.9895 24.9553 29.2601C25.4666 28.9141 25.9569 28.5393 26.4236 28.138L16.0247 17.7389H31.9056Z" fill="#0052B4"/>
<path d="M27.8261 16.0001L12.2653 0.439453C5.2305 2.12177 0 8.44964 0 16.0001C0 24.8366 7.1635 32.0001 16 32.0001C19.3518 32.0001 22.4623 30.9688 25.0331 29.2071L11.8261 16.0001H27.8261Z" fill="#D80027"/>
<path d="M15.217 23.6249L13.263 22.7058L14.3035 20.8134L12.1817 21.2193L11.9128 19.0757L10.4348 20.6522L8.9569 19.0757L8.68796 21.2193L6.56615 20.8133L7.60671 22.7058L5.65259 23.6249L7.60671 24.544L6.56615 26.4365L8.68809 26.0306L8.95684 28.1741L10.4348 26.5976L11.9128 28.1741L12.1817 26.0306L14.3035 26.4366L13.2629 24.5441L15.217 23.6249Z" fill="#F0F0F0"/>
<path d="M13.9131 8.87418L12.4919 8.20574L13.2487 6.8293L11.7054 7.12455L11.5098 5.56543L10.4349 6.71212L9.35992 5.56543L9.16429 7.12455L7.62098 6.8293L8.37786 8.20574L6.95654 8.87418L10.4349 9.56993L13.9131 8.87418Z" fill="#F0F0F0"/>
<path d="M14.6086 8.87402C14.6086 11.1792 12.7399 13.048 10.4347 13.048C8.12949 13.048 6.26074 11.1792 6.26074 8.87402" fill="#F0F0F0"/>
</g>
<defs>
<clipPath id="clip0_0_503">
<rect width="32" height="32" fill="white"/>
</clipPath>
</defs>
</svg>
