<svg width="14" height="13" viewBox="0 0 14 13" fill="none" xmlns="http://www.w3.org/2000/svg">
<path d="M13.9316 1.15917C13.4764 1.40007 12.9921 1.58124 12.4906 1.69821C12.7246 1.63846 13.0395 1.1829 13.1647 0.99869C13.3549 0.720712 13.4919 0.409805 13.5688 0.0817612C13.5669 0.0580081 13.5879 0.0221718 13.5628 0.00710851C13.5504 0.00153344 13.5367 -0.000815438 13.5231 0.000277129C13.5094 0.00136969 13.4963 0.00586881 13.4849 0.0133618C12.9576 0.356319 12.3893 0.63138 11.7933 0.832042C11.7726 0.840223 11.7501 0.842614 11.7282 0.838958C11.7062 0.835302 11.6857 0.825737 11.6688 0.81129C11.6169 0.758666 11.5617 0.709478 11.5034 0.66404C11.2375 0.461484 10.9415 0.30199 10.6262 0.191388C10.2016 0.0555622 9.7517 0.0180693 9.31053 0.0817413C8.88246 0.143442 8.47166 0.292633 8.10368 0.520037C7.74241 0.757646 7.43288 1.06591 7.19368 1.42631C6.94145 1.79773 6.77162 2.21892 6.69562 2.66154C6.63735 3.08144 6.66119 3.50869 6.76579 3.91951C6.77151 3.99077 6.77233 4.00095 6.71048 3.99566C4.26463 3.83322 2.21247 3.13376 0.444148 1.42116C0.366421 1.34543 0.329128 1.34842 0.278024 1.43448C-0.341164 2.56332 0.137317 4.23251 1.08601 4.99997C1.21365 5.10243 1.34441 5.20123 1.4814 5.29269C1.07495 5.29639 0.671875 5.21839 0.29607 5.06331C0.224726 5.02464 0.189338 5.05138 0.192479 5.13309C0.191922 5.24677 0.201026 5.36029 0.219691 5.47242C0.333824 6.00785 0.587984 6.50334 0.956178 6.90824C1.32437 7.31314 1.79339 7.61292 2.31527 7.77692C2.44273 7.81986 2.57432 7.84937 2.7079 7.86496C2.33967 7.96869 1.95685 8.01093 1.57487 7.98998C1.49214 7.97954 1.46517 8.0261 1.50194 8.10169C2.10916 9.41905 3.22386 9.7463 4.0357 9.91342C4.14555 9.92169 4.25404 9.91299 4.37826 9.93035C4.37826 9.93035 4.37826 9.93035 4.35955 9.95234C4.15991 10.3987 3.23715 10.7629 2.81517 10.947C2.04592 11.2953 1.21014 11.4719 0.365839 11.4645C0.231985 11.4547 0.201744 11.4606 0.169202 11.4803C0.13666 11.4999 0.173556 11.5346 0.213571 11.5655C0.392065 11.6639 0.569471 11.7487 0.753386 11.8296C1.30119 12.074 1.8743 12.2571 2.46227 12.3756C5.5048 12.958 8.80596 12.0854 10.8619 9.6836C12.4782 7.79861 12.9023 5.34328 12.7091 2.93403C12.7018 2.84241 12.8093 2.77915 12.8699 2.72648C13.2864 2.34435 13.6453 1.90374 13.9353 1.41842C13.9865 1.34544 14.0085 1.25598 13.9971 1.16758C13.993 1.11668 13.9938 1.12686 13.9316 1.15917Z" fill="white"/>
</svg>
