<svg width="26" height="26" viewBox="0 0 26 26" fill="none" xmlns="http://www.w3.org/2000/svg">
<path d="M23.8439 25.0485L23.5422 25.9506C23.8716 26.0608 24.2349 25.9827 24.4899 25.7468C24.7448 25.5109 24.851 25.1548 24.7667 24.8178L23.8439 25.0485ZM22.639 20.2302L21.8785 19.6588L21.6063 20.0212L21.7162 20.461L22.639 20.2302ZM19.0244 23.4366L19.3261 22.5345L18.9194 22.3985L18.5481 22.6132L19.0244 23.4366ZM13 24.0973C6.87102 24.0973 1.90248 19.1288 1.90248 12.9998H4.56781e-05C4.56781e-05 20.1795 5.82033 25.9997 13 25.9997V24.0973ZM1.90248 12.9998C1.90248 6.87077 6.87102 1.90223 13 1.90223V-0.000200827C5.82033 -0.000200827 4.56781e-05 5.82009 4.56781e-05 12.9998H1.90248ZM13 1.90223C19.129 1.90223 24.0976 6.87077 24.0976 12.9998H26C26 5.82009 20.1797 -0.000200827 13 -0.000200827V1.90223ZM24.0976 12.9998C24.0976 15.4996 23.2721 17.804 21.8785 19.6588L23.3995 20.8016C25.0321 18.6286 26 15.9258 26 12.9998H24.0976ZM21.7162 20.461L22.9211 25.2793L24.7667 24.8178L23.5618 19.9994L21.7162 20.461ZM24.1456 24.1464L19.3261 22.5345L18.7227 24.3387L23.5422 25.9506L24.1456 24.1464ZM18.5481 22.6132C16.9168 23.5569 15.0229 24.0973 13 24.0973V25.9997C15.3663 25.9997 17.5876 25.3667 19.5007 24.26L18.5481 22.6132Z" fill="black"/>
</svg>
