<svg width="23" height="23" viewBox="0 0 23 23" fill="none" xmlns="http://www.w3.org/2000/svg">
<path d="M20.1251 4.14301V18.8562C20.1251 19.1926 19.9914 19.5152 19.7536 19.7531C19.5157 19.9909 19.1931 20.1246 18.8567 20.1246H4.1435C3.80711 20.1246 3.48449 19.9909 3.24662 19.7531C3.00875 19.5152 2.87512 19.1926 2.87512 18.8562V4.14301C2.87512 3.80662 3.00875 3.484 3.24662 3.24613C3.48449 3.00826 3.80711 2.87463 4.1435 2.87463H18.8567C19.1931 2.87463 19.5157 3.00826 19.7536 3.24613C19.9914 3.484 20.1251 3.80662 20.1251 4.14301ZM7.94863 9.4702H5.41188V17.5878H7.94863V9.4702ZM8.17694 6.67976C8.17828 6.48788 8.14181 6.29761 8.06961 6.11982C7.99741 5.94203 7.8909 5.7802 7.75616 5.64358C7.62142 5.50695 7.46109 5.39821 7.28432 5.32355C7.10755 5.24889 6.9178 5.20977 6.72592 5.20845H6.68025C6.29004 5.20845 5.9158 5.36346 5.63988 5.63939C5.36395 5.91531 5.20894 6.28955 5.20894 6.67976C5.20894 7.06998 5.36395 7.44422 5.63988 7.72014C5.9158 7.99607 6.29004 8.15108 6.68025 8.15108C6.87215 8.1558 7.0631 8.12267 7.24219 8.05357C7.42128 7.98446 7.58499 7.88075 7.72398 7.74836C7.86298 7.61596 7.97452 7.45748 8.05224 7.28196C8.12996 7.10644 8.17233 6.91733 8.17694 6.72543V6.67976ZM17.5883 12.6564C17.5883 10.216 16.0358 9.26726 14.4935 9.26726C13.9885 9.24197 13.4857 9.34953 13.0352 9.57921C12.5848 9.80888 12.2024 10.1527 11.9263 10.5762H11.8552V9.4702H9.47069V17.5878H12.0074V13.2703C11.9708 12.8281 12.1101 12.3893 12.395 12.0492C12.68 11.7091 13.0877 11.4952 13.5295 11.4539H13.6259C14.4326 11.4539 15.0313 11.9613 15.0313 13.2398V17.5878H17.568L17.5883 12.6564Z" fill="#14103D"/>
</svg>
