<svg width="363" height="188" viewBox="0 0 363 188" fill="none" xmlns="http://www.w3.org/2000/svg">
<rect x="9.57788" y="56.5088" width="13.1097" height="131.216" fill="#F7AF25"/>
<rect x="22.6875" y="17.2401" width="13.1097" height="170.485" fill="#0DBE5F"/>
<rect x="54.9528" y="85.2426" width="13.1097" height="102.483" fill="#F7AF25"/>
<rect x="68.0625" y="16.2823" width="13.1097" height="171.443" fill="#0DBE5F"/>
<rect x="100.328" y="91.9472" width="13.1097" height="95.7783" fill="#F7AF25"/>
<rect x="113.438" y="107.272" width="13.1097" height="80.4538" fill="#0DBE5F"/>
<rect x="145.703" y="85.2426" width="13.1097" height="102.483" fill="#F7AF25"/>
<rect x="158.812" y="34.4801" width="13.1097" height="153.245" fill="#0DBE5F"/>
<rect x="191.078" y="131.216" width="13.1097" height="56.5092" fill="#F7AF25"/>
<rect x="204.188" y="69.918" width="13.1097" height="117.807" fill="#0DBE5F"/>
<rect x="236.453" y="56.5088" width="13.1097" height="131.216" fill="#F7AF25"/>
<rect x="249.562" y="79.4957" width="13.1097" height="108.229" fill="#0DBE5F"/>
<rect x="281.828" y="56.5088" width="13.1097" height="131.216" fill="#F7AF25"/>
<rect x="294.937" y="28.7333" width="13.1097" height="158.992" fill="#0DBE5F"/>
<rect x="327.203" y="80.4535" width="13.1097" height="107.272" fill="#F7AF25"/>
<rect x="340.312" width="13.1097" height="187.725" fill="#0DBE5F"/>
</svg>
