<svg width="79" height="73" viewBox="0 0 79 73" fill="none" xmlns="http://www.w3.org/2000/svg">
<path d="M28.9241 63.5019C40.9681 63.5019 49.0492 56.8971 49.0492 47.1842C49.0492 41.5119 45.3195 37.3159 38.7924 35.2179C43.8431 32.576 46.6404 28.7686 46.6404 23.951C46.6404 15.4813 39.8803 9.49818 28.8464 9.49818C18.5119 9.49818 10.5861 16.3361 10.5084 25.4273H20.9984C21.0761 20.8428 23.8734 18.0455 28.3025 18.0455C32.8093 18.0455 35.5289 20.6097 35.5289 24.728C35.5289 29.0017 32.343 31.6436 27.0592 31.6436H22.0085V40.1909H27.6808C34.1302 40.1909 37.9377 42.9106 37.9377 47.495C37.9377 52.1572 34.6741 54.9546 29.0795 54.9546C23.718 54.9546 20.299 52.0795 19.9882 47.3396H9.4983C9.576 56.8194 17.5794 63.5019 28.9241 63.5019Z" fill="#EAEAEA"/>
<path d="M69.4912 55.887C69.4912 51.5356 66.5385 48.5052 62.2648 48.5052C57.9912 48.5052 54.9607 51.5356 54.9607 55.887C54.9607 60.1607 57.9912 63.1911 62.2648 63.1911C66.5385 63.1911 69.4912 60.1607 69.4912 55.887Z" fill="#EAEAEA"/>
</svg>
