<svg width="489" height="95" viewBox="0 0 489 95" fill="none" xmlns="http://www.w3.org/2000/svg">
<rect width="489" height="94.3134" fill="#14103D"/>
<g clip-path="url(#clip0_0_636)">
<path d="M190.949 53.8351C191.127 51.5545 189.409 50.1031 188.609 49.5404C188.136 49.2146 187.691 48.8888 187.247 48.563L170.749 36.1824C168.765 34.7015 167.432 33.0428 166.573 31.7989C164.915 29.3109 164.737 26.0825 166.218 23.476C166.247 23.4168 166.277 23.3576 166.336 23.2983C167.728 20.9585 170.068 19.3294 172.704 18.6778C178.776 17.1969 182.686 21.0769 182.686 21.0769C188.58 26.8526 184.552 35.1161 184.552 35.1161C188.402 33.6944 188.787 29.7848 188.787 29.7848C190.624 21.225 184.256 15.9529 184.256 15.9529C176.377 8.84445 167.847 13.4057 167.847 13.4057C158.665 18.2335 159.228 26.7341 159.465 28.6297C159.494 28.8962 159.524 29.1924 159.554 29.459C159.998 35.0865 164.707 38.463 164.707 38.463L184.729 52.9465C184.729 52.9465 188.254 55.7307 189.765 57.7447C190.209 58.4556 190.416 58.9295 190.416 58.9295L190.949 53.8351Z" fill="white"/>
<path d="M159.109 40.4772C158.932 42.7578 160.65 44.2092 161.449 44.7719C161.923 45.0977 162.368 45.4235 162.812 45.7493L179.309 58.1595C181.294 59.6404 182.627 61.2991 183.486 62.5431C185.174 65.031 185.322 68.2594 183.841 70.8659C183.811 70.9251 183.782 70.9844 183.723 71.0436C182.33 73.3835 179.991 75.0125 177.355 75.6641C171.283 77.145 167.373 73.265 167.373 73.265C161.479 67.4894 165.507 59.2258 165.507 59.2258C161.657 60.6475 161.272 64.5571 161.272 64.5571C159.435 73.1169 165.803 78.389 165.803 78.389C173.682 85.4975 182.212 80.9362 182.212 80.9362C191.394 76.1084 190.831 67.6078 190.594 65.7122C190.564 65.4457 190.535 65.1495 190.505 64.8829C190.061 59.2554 185.322 55.9085 185.322 55.9085L165.329 41.3658C165.329 41.3658 161.805 38.5816 160.294 36.5676C159.85 35.8567 159.643 35.3828 159.643 35.3828L159.109 40.4772Z" fill="white"/>
<path d="M179.073 28.2452C178.954 29.9038 177.503 31.1774 175.815 31.0589C174.156 30.9405 172.882 29.4892 173.001 27.8009C173.119 26.1423 174.571 24.8687 176.259 24.9871C177.917 25.1056 179.191 26.5569 179.073 28.2452Z" fill="white"/>
<path d="M177.058 66.7785C176.94 68.4372 175.489 69.7108 173.8 69.5923C172.142 69.4738 170.868 68.0225 170.987 66.3343C171.105 64.646 172.556 63.402 174.245 63.5205C175.933 63.6686 177.177 65.1199 177.058 66.7785Z" fill="white"/>
<path d="M198.354 41.8096H210.527V44.801H201.908V48.7107H209.461V51.6726H201.908V58.8106H198.354V41.8096Z" fill="white"/>
<path d="M216.066 58.8406H212.512V41.7803H216.066V58.8406Z" fill="white"/>
<path d="M232.031 44.8014H222.997V48.4148H231.29V51.3767H222.997V55.7602H232.445V58.8406H219.531V41.7803H232.031V44.8014Z" fill="white"/>
<path d="M235.229 41.7803H238.783V55.7602H247.314V58.8406H235.229V41.7803Z" fill="white"/>
<path d="M260.997 41.7803H266.121V58.8406H262.804V47.2893C262.804 46.9635 262.804 46.4896 262.804 45.8973C262.804 45.3049 262.804 44.831 262.804 44.5052L259.576 58.811H256.11L252.912 44.5052C252.912 44.831 252.912 45.3049 252.912 45.8973C252.912 46.4896 252.912 46.9635 252.912 47.2893V58.8406H249.594V41.7803H254.777L257.887 55.1975L260.997 41.7803Z" fill="white"/>
<path d="M282.056 44.8014H273.023V48.4148H281.316V51.3767H273.023V55.7602H282.471V58.8406H269.557V41.7803H282.056V44.8014Z" fill="white"/>
<path d="M285.196 41.7803H288.928L295.711 53.6869V41.7803H299.028V58.8406H295.474L288.543 46.7266V58.8406H285.226V41.7803H285.196Z" fill="white"/>
<path d="M314.755 41.7803V44.8014H309.661V58.8406H306.077V44.8014H300.953V41.7803H314.755Z" fill="white"/>
<path d="M329.476 44.8014H320.442V48.4148H328.735V51.3767H320.442V55.7602H329.891V58.8406H316.977V41.7803H329.476V44.8014Z" fill="white"/>
</g>
<defs>
<clipPath id="clip0_0_636">
<rect width="170.781" height="70.3441" fill="white" transform="translate(159.11 11.9844)"/>
</clipPath>
</defs>
</svg>
