<svg width="23" height="23" viewBox="0 0 23 23" fill="none" xmlns="http://www.w3.org/2000/svg">
<path d="M19.1211 7.58905C19.1328 7.75802 19.1328 7.92699 19.1328 8.09751C19.1328 13.2935 15.1772 19.286 7.94432 19.286V19.2829C5.80769 19.286 3.71544 18.674 1.91675 17.52C2.22743 17.5574 2.53967 17.5761 2.85269 17.5769C4.62335 17.5784 6.3434 16.9843 7.73642 15.8903C6.05374 15.8584 4.57819 14.7612 4.06272 13.1595C4.65216 13.2732 5.25951 13.2499 5.83805 13.0918C4.00354 12.7212 2.68372 11.1093 2.68372 9.23746C2.68372 9.22033 2.68372 9.20398 2.68372 9.18763C3.23034 9.49208 3.84236 9.66105 4.4684 9.67974C2.74057 8.52499 2.20797 6.2264 3.25136 4.42927C5.24783 6.88592 8.19349 8.37938 11.3556 8.53745C11.0387 7.17169 11.4716 5.74052 12.4932 4.78044C14.077 3.29165 16.5679 3.36796 18.0567 4.95097C18.9374 4.77733 19.7814 4.45419 20.5539 3.99634C20.2603 4.90658 19.6459 5.67979 18.8252 6.17112C19.6047 6.07924 20.3662 5.87056 21.0833 5.55209C20.5554 6.3432 19.8904 7.03231 19.1211 7.58905Z" fill="#14103D"/>
</svg>
