<svg width="97" height="89" viewBox="0 0 97 89" fill="none" xmlns="http://www.w3.org/2000/svg">
<path d="M35.5615 79.0582C52.7981 79.0582 61.5177 67.3982 61.5177 55.6368C61.5177 44.0782 53.7106 32.8237 37.3866 32.8237C33.3309 32.8237 29.3767 33.8376 25.9293 36.0682L28.0586 22.0762H57.4621V9.5037H17.818L11.8359 47.931L23.3946 51.6825C25.5238 47.0185 29.5794 44.7879 35.0546 44.7879C43.3687 44.7879 46.9174 50.263 46.9174 55.6368C46.9174 61.2133 43.7742 66.4857 35.4601 66.4857C29.0725 66.4857 24.4085 63.1397 23.5973 57.1577H9.50395C9.90951 69.933 20.9612 79.0582 35.5615 79.0582Z" fill="#EAEAEA"/>
<path d="M87.4961 69.0204C87.4961 63.3425 83.6432 59.3883 78.0667 59.3883C72.4902 59.3883 68.5359 63.3425 68.5359 69.0204C68.5359 74.597 72.4902 78.5512 78.0667 78.5512C83.6432 78.5512 87.4961 74.597 87.4961 69.0204Z" fill="#EAEAEA"/>
</svg>
