<svg width="42" height="42" viewBox="0 0 42 42" fill="none" xmlns="http://www.w3.org/2000/svg">
<rect width="42" height="42" rx="21" fill="white"/>
<path fill-rule="evenodd" clip-rule="evenodd" d="M21.0001 12.4092C18.6668 12.4092 18.3747 12.4189 17.4583 12.4607C16.5437 12.5025 15.9189 12.648 15.3725 12.8605C14.7997 13.0758 14.2803 13.4137 13.8507 13.8513C13.4139 14.2804 13.0758 14.7995 12.8599 15.3725C12.6486 15.9189 12.5025 16.5443 12.4607 17.4589C12.4195 18.3747 12.4092 18.6662 12.4092 21.0001C12.4092 23.334 12.4189 23.6255 12.4607 24.5418C12.5025 25.4565 12.648 26.0813 12.8605 26.6277C13.0758 27.2004 13.4137 27.7199 13.8513 28.1494C14.2804 28.5863 14.7995 28.9244 15.3725 29.1403C15.9189 29.3522 16.5437 29.4976 17.4583 29.5395C18.3747 29.5813 18.6668 29.591 21.0001 29.591C23.3334 29.591 23.6255 29.5813 24.5418 29.5395C25.4565 29.4976 26.0813 29.3522 26.6277 29.1397C27.2004 28.9243 27.7199 28.5864 28.1494 28.1489C28.5863 27.7198 28.9244 27.2007 29.1403 26.6277C29.3522 26.0813 29.4976 25.4565 29.5395 24.5418C29.5813 23.6255 29.591 23.3334 29.591 21.0001C29.591 18.6668 29.5813 18.3747 29.5395 17.4583C29.4976 16.5437 29.3522 15.9189 29.1397 15.3725C28.924 14.7992 28.5859 14.2799 28.1489 13.8507C27.7198 13.4139 27.2007 13.0758 26.6277 12.8599C26.0813 12.6486 25.4559 12.5025 24.5413 12.4607C23.6255 12.4195 23.334 12.4092 21.0001 12.4092ZM21.0001 13.9573C23.2939 13.9573 23.5659 13.9659 24.472 14.0071C25.3093 14.0455 25.764 14.1846 26.067 14.3032C26.4679 14.4584 26.7543 14.6451 27.055 14.9452C27.3556 15.2459 27.5418 15.5323 27.697 15.9332C27.815 16.2361 27.9547 16.6909 27.9931 17.5282C28.0343 18.4343 28.0429 18.7063 28.0429 21.0001C28.0429 23.2939 28.0343 23.5659 27.9931 24.472C27.9547 25.3093 27.8155 25.764 27.697 26.067C27.5595 26.4402 27.3401 26.7778 27.055 27.055C26.7778 27.3402 26.4402 27.5596 26.067 27.697C25.764 27.815 25.3093 27.9547 24.472 27.9931C23.5659 28.0343 23.2944 28.0429 21.0001 28.0429C18.7057 28.0429 18.4343 28.0343 17.5282 27.9931C16.6909 27.9547 16.2361 27.8155 15.9332 27.697C15.56 27.5595 15.2224 27.3401 14.9452 27.055C14.6601 26.7777 14.4407 26.4401 14.3032 26.067C14.1852 25.764 14.0455 25.3093 14.0071 24.472C13.9659 23.5659 13.9573 23.2939 13.9573 21.0001C13.9573 18.7063 13.9659 18.4343 14.0071 17.5282C14.0455 16.6909 14.1846 16.2361 14.3032 15.9332C14.4584 15.5323 14.6451 15.2459 14.9452 14.9452C15.2224 14.66 15.56 14.4406 15.9332 14.3032C16.2361 14.1852 16.6909 14.0455 17.5282 14.0071C18.4343 13.9659 18.7063 13.9573 21.0001 13.9573Z" fill="#14103D"/>
<path fill-rule="evenodd" clip-rule="evenodd" d="M21.0002 23.8662C20.6238 23.8662 20.251 23.792 19.9032 23.648C19.5555 23.5039 19.2395 23.2928 18.9733 23.0266C18.7071 22.7604 18.496 22.4444 18.3519 22.0966C18.2078 21.7488 18.1337 21.3761 18.1337 20.9997C18.1337 20.6232 18.2078 20.2505 18.3519 19.9027C18.496 19.5549 18.7071 19.2389 18.9733 18.9727C19.2395 18.7066 19.5555 18.4954 19.9032 18.3514C20.251 18.2073 20.6238 18.1332 21.0002 18.1332C21.7604 18.1332 22.4895 18.4352 23.0271 18.9727C23.5647 19.5103 23.8667 20.2394 23.8667 20.9997C23.8667 21.7599 23.5647 22.489 23.0271 23.0266C22.4895 23.5642 21.7604 23.8662 21.0002 23.8662ZM21.0002 16.5839C19.8291 16.5839 18.7059 17.0492 17.8778 17.8773C17.0497 18.7054 16.5845 19.8285 16.5845 20.9997C16.5845 22.1708 17.0497 23.2939 17.8778 24.1221C18.7059 24.9502 19.8291 25.4154 21.0002 25.4154C22.1713 25.4154 23.2945 24.9502 24.1226 24.1221C24.9507 23.2939 25.4159 22.1708 25.4159 20.9997C25.4159 19.8285 24.9507 18.7054 24.1226 17.8773C23.2945 17.0492 22.1713 16.5839 21.0002 16.5839ZM26.7006 16.5038C26.7006 16.7806 26.5906 17.0461 26.3948 17.2418C26.1991 17.4376 25.9336 17.5476 25.6568 17.5476C25.3799 17.5476 25.1144 17.4376 24.9187 17.2418C24.7229 17.0461 24.613 16.7806 24.613 16.5038C24.613 16.2269 24.7229 15.9614 24.9187 15.7657C25.1144 15.5699 25.3799 15.46 25.6568 15.46C25.9336 15.46 26.1991 15.5699 26.3948 15.7657C26.5906 15.9614 26.7006 16.2269 26.7006 16.5038Z" fill="#14103D"/>
</svg>
