<svg width="32" height="24" viewBox="0 0 32 24" fill="none" xmlns="http://www.w3.org/2000/svg">
<path d="M31.6351 11.107C30.6748 11.1241 29.7164 11.0172 28.7836 10.7891C29.2233 10.887 30.1311 10.3946 30.4945 10.1936C31.0453 9.8915 31.5353 9.4898 31.9397 9.00888C31.9565 8.96776 32.0217 8.92585 31.9926 8.87964C31.9766 8.85985 31.9558 8.84441 31.9322 8.83474C31.9086 8.82508 31.883 8.8215 31.8577 8.82432C30.6915 8.95047 29.5142 8.92904 28.3536 8.76052C28.3123 8.7567 28.2729 8.7417 28.2395 8.71714C28.206 8.69257 28.18 8.65936 28.164 8.62107C28.1221 8.48981 28.0716 8.36143 28.013 8.23674C27.7414 7.67567 27.3834 7.16083 26.952 6.71106C26.3601 6.12724 25.6434 5.68571 24.8558 5.4198C24.0917 5.16165 23.2826 5.0636 22.4787 5.13175C21.6775 5.22253 20.9027 5.47446 20.2011 5.87239C19.4684 6.27768 18.8309 6.83521 18.3314 7.50748C17.8806 8.1569 17.5601 8.88773 17.3879 9.65932C17.3373 9.78268 17.3301 9.80031 17.2317 9.73939C13.2998 7.40771 10.4755 4.51449 8.97721 0.175082C8.91173 -0.016409 8.84718 -0.0428658 8.68963 0.0572293C6.70815 1.41323 6.09727 4.5933 7.02863 6.66959C7.15461 6.94762 7.28886 7.22218 7.43966 7.48981C6.76039 7.15338 6.15561 6.6839 5.66114 6.10918C5.57505 5.98472 5.49364 5.99938 5.42999 6.13796C5.33326 6.32659 5.25272 6.52311 5.18926 6.72538C4.92786 7.71228 4.93304 8.75078 5.20429 9.73468C5.47553 10.7186 6.0031 11.6126 6.73305 12.3253C6.90889 12.5041 7.10293 12.6641 7.312 12.8026C6.612 12.6648 5.93958 12.4125 5.32179 12.0557C5.19297 11.9686 5.10885 12.0233 5.10631 12.18C5.00614 14.8833 6.58468 16.3672 7.79435 17.3295C7.97012 17.4358 8.15793 17.5128 8.34996 17.6464C8.34996 17.6464 8.34996 17.6464 8.3003 17.6672C7.59201 18.2414 5.74992 18.0697 4.89276 18.0203C3.31953 17.9513 1.78036 17.5406 0.382053 16.8167C0.167603 16.6876 0.112374 16.6719 0.0416472 16.6772C-0.0290798 16.6825 0.00313014 16.7712 0.0436172 16.8564C0.257629 17.1705 0.48127 17.4611 0.719058 17.7506C1.42436 18.619 2.22342 19.4066 3.1017 20.0992C7.67218 23.6325 13.8993 24.9632 19.3438 22.7006C23.6214 20.927 26.3963 17.1999 28.1055 13.0292C28.1705 12.8706 28.4027 12.8559 28.5479 12.8194C29.5629 12.5348 30.5313 12.1043 31.4228 11.5414C31.5694 11.4631 31.6814 11.3328 31.737 11.1762C31.7731 11.088 31.7659 11.1057 31.6351 11.107Z" fill="white"/>
</svg>
