<svg width="25" height="33" viewBox="0 0 25 33" fill="none" xmlns="http://www.w3.org/2000/svg">
<path d="M10.892 0.110105C5.55217 0.720866 0.231214 5.14728 0.0115989 11.4703C-0.126445 15.3309 0.943393 18.2272 4.52939 19.0405C6.08552 16.2278 4.02741 15.6074 3.7074 13.5726C2.39285 5.23407 13.0944 -0.452438 18.6946 5.36908C22.5692 9.4001 20.0185 21.8018 13.7689 20.5127C7.78283 19.2816 16.6992 9.40975 11.921 7.47138C8.03696 5.89626 5.97258 12.29 7.8142 15.4659C6.73495 20.9274 4.41017 26.0739 5.35138 32.924C8.40403 30.6546 9.43308 26.3085 10.277 21.776C11.8112 22.7308 12.63 23.7241 14.5878 23.8784C21.8068 24.4505 25.8383 16.4946 24.8532 9.1558C23.9779 2.64959 17.6404 -0.661383 10.892 0.110105Z" fill="white"/>
</svg>
