<svg width="86" height="79" viewBox="0 0 86 79" fill="none" xmlns="http://www.w3.org/2000/svg">
<path d="M52.8824 59.3252H28.8597L38.2478 49.2007C49.1087 38.2478 51.8699 33.4617 51.8699 25.9143C51.8699 15.4217 42.7578 7.59818 30.3323 7.59818C16.9864 7.59818 7.59818 16.4341 7.59818 28.8597H20.0237C20.0237 22.7849 23.7054 19.0113 29.688 19.0113C35.1184 19.0113 38.524 22.4168 38.524 27.479C38.524 32.9095 35.4866 36.7752 28.3074 44.1385L9.439 63.4671V70.7383H52.8824V59.3252Z" fill="#EAEAEA"/>
<path d="M78.4021 62.5467C78.4021 57.3924 74.9046 53.8028 69.8423 53.8028C64.7801 53.8028 61.1905 57.3924 61.1905 62.5467C61.1905 67.6089 64.7801 71.1985 69.8423 71.1985C74.9046 71.1985 78.4021 67.6089 78.4021 62.5467Z" fill="#EAEAEA"/>
</svg>
