<svg width="9" height="12" viewBox="0 0 9 12" fill="none" xmlns="http://www.w3.org/2000/svg">
<path d="M3.56755 0.112819C1.67649 0.484176 -0.0984674 2.2188 0.00427592 4.48508C0.0655957 5.86892 0.530999 6.87346 1.83603 7.06136C2.31161 6.01142 1.55821 5.84867 1.3855 5.13056C0.676641 2.18786 4.33863 -0.151377 6.50713 1.76885C8.00756 3.09857 7.45136 7.60433 5.18065 7.32274C3.0058 7.05428 5.90976 3.27028 4.14636 2.71442C2.71296 2.26276 2.15837 4.6072 2.90764 5.68957C2.67844 7.67257 1.99502 9.57868 2.52778 12.0001C3.55382 11.1015 3.79705 9.51858 3.96878 7.87437C4.5445 8.17163 4.86565 8.50319 5.5698 8.50222C8.16646 8.49981 9.37937 5.5406 8.81691 2.94579C8.31756 0.645401 5.95749 -0.356364 3.56755 0.112819Z" fill="white"/>
</svg>
