<svg width="262" height="122" viewBox="0 0 262 122" fill="none" xmlns="http://www.w3.org/2000/svg">
<path d="M81.813 41.0782L81.3284 40.7466L81.813 41.0782ZM70.6562 5.84644L70.48 5.28631L70.6562 5.84644ZM158.149 58.1071L157.563 58.1442L158.149 58.1071ZM262 117.162L255.509 115.204L257.059 121.805L262 117.162ZM0.384909 22.8429C0.736862 22.7208 1.0951 22.6009 1.4594 22.4832L1.09845 21.3657C0.726408 21.4858 0.360166 21.6084 -2.56528e-05 21.7334L0.384909 22.8429ZM3.68409 21.8131C4.41401 21.608 5.16364 21.411 5.93142 21.2221L5.65088 20.0817C4.87137 20.2735 4.10934 20.4737 3.36643 20.6825L3.68409 21.8131ZM8.18014 20.7032C8.92547 20.542 9.68509 20.3879 10.4577 20.241L10.2384 19.0873C9.45648 19.2359 8.6872 19.3919 7.93186 19.5553L8.18014 20.7032ZM12.759 19.8309C13.5103 19.7057 14.2721 19.5869 15.0432 19.4746L14.8739 18.3125C14.0951 18.4259 13.3254 18.5459 12.5659 18.6725L12.759 19.8309ZM17.3493 19.1614C18.1146 19.0648 18.8877 18.9744 19.6675 18.8901L19.5413 17.7225C18.7547 17.8075 17.9747 17.8988 17.2023 17.9963L17.3493 19.1614ZM21.9753 18.6605C22.7447 18.5904 23.5196 18.5261 24.299 18.4678L24.2113 17.2966C23.4257 17.3555 22.6445 17.4202 21.8688 17.4909L21.9753 18.6605ZM26.6209 18.3121C27.3925 18.2663 28.1675 18.2262 28.9451 18.1918L28.8933 17.0186C28.1098 17.0532 27.3289 17.0936 26.5514 17.1397L26.6209 18.3121ZM31.2755 18.1061C32.0492 18.0833 32.8245 18.0661 33.6008 18.0546L33.5834 16.8803C32.8014 16.892 32.0203 16.9093 31.241 16.9322L31.2755 18.1061ZM35.9305 18.0369C36.7066 18.0366 37.4829 18.042 38.2584 18.053L38.275 16.8787C37.4938 16.8676 36.7119 16.8622 35.93 16.8625L35.9305 18.0369ZM40.5878 18.1032C41.364 18.1257 42.1385 18.1538 42.9107 18.1878L42.9622 17.0145C42.1842 16.9803 41.4037 16.9519 40.6218 16.9293L40.5878 18.1032ZM45.2403 18.308C46.0177 18.3542 46.7918 18.4064 47.5617 18.4644L47.65 17.2934C46.8738 17.2348 46.0935 17.1823 45.3099 17.1357L45.2403 18.308ZM49.8794 18.6585C50.6584 18.7304 51.432 18.8085 52.1993 18.8928L52.3276 17.7255C51.5534 17.6403 50.7729 17.5615 49.9872 17.4891L49.8794 18.6585ZM54.5015 19.1675C55.2792 19.2677 56.0492 19.3746 56.8105 19.4883L56.9839 18.3267C56.2147 18.2119 55.4369 18.1039 54.6515 18.0027L54.5015 19.1675ZM59.1085 19.8566C59.877 19.9886 60.635 20.1277 61.3813 20.2742L61.6075 19.1218C60.8517 18.9735 60.0845 18.8326 59.3072 18.6992L59.1085 19.8566ZM63.6629 20.7529C64.4315 20.9251 65.1854 21.1056 65.9233 21.2943L66.2143 20.1565C65.4645 19.9648 64.6992 19.7816 63.9196 19.6069L63.6629 20.7529ZM68.1507 21.9039C68.9045 22.1245 69.638 22.3546 70.3496 22.5941L70.7243 21.4811C69.9969 21.2362 69.2484 21.0015 68.4805 20.7768L68.1507 21.9039ZM72.5312 23.3856C73.2697 23.6745 73.9784 23.975 74.6553 24.287L75.1469 23.2205C74.4474 22.898 73.7173 22.5886 72.9591 22.2919L72.5312 23.3856ZM76.7029 25.3209C77.3958 25.7052 78.0431 26.104 78.642 26.517L79.3087 25.5503C78.6753 25.1134 77.9952 24.6948 77.2725 24.2939L76.7029 25.3209ZM80.4163 27.9113C80.9958 28.4358 81.5015 28.9782 81.93 29.5381L82.8626 28.8243C82.3858 28.2013 81.8302 27.6069 81.2042 27.0405L80.4163 27.9113ZM83.0434 31.4106C83.3324 32.0785 83.5222 32.7707 83.6067 33.4889L84.7731 33.3516C84.6747 32.5159 84.454 31.7131 84.1212 30.9442L83.0434 31.4106ZM83.552 35.6437C83.4429 36.321 83.247 37.0253 82.9562 37.7573L84.0477 38.1908C84.3671 37.3867 84.5875 36.5998 84.7115 35.8305L83.552 35.6437ZM81.9609 39.7577C81.7678 40.0827 81.5571 40.4123 81.3284 40.7466L82.2976 41.4098C82.5397 41.0559 82.7639 40.7053 82.9705 40.3577L81.9609 39.7577ZM81.3284 40.7466C81.1012 41.0787 80.8667 41.3958 80.6255 41.6983L81.5438 42.4304C81.8031 42.1051 82.0545 41.765 82.2976 41.4098L81.3284 40.7466ZM79.0518 43.3874C78.4707 43.919 77.8616 44.386 77.2294 44.7921L77.864 45.7802C78.5524 45.338 79.2143 44.8303 79.8444 44.254L79.0518 43.3874ZM75.194 45.8624C74.4828 46.1611 73.75 46.3969 73.0007 46.5733L73.2697 47.7164C74.0802 47.5257 74.8754 47.27 75.6488 46.9451L75.194 45.8624ZM70.7113 46.9272C69.9452 46.9872 69.168 46.9928 68.3852 46.9469L68.3164 48.1193C69.15 48.1681 69.9809 48.1624 70.8032 48.098L70.7113 46.9272ZM66.068 46.6659C65.3071 46.5271 64.5464 46.3434 63.7907 46.1179L63.4548 47.2432C64.25 47.4806 65.0525 47.6744 65.8573 47.8212L66.068 46.6659ZM61.5775 45.3325C60.856 45.0353 60.1445 44.7015 59.4474 44.3339L58.8996 45.3727C59.6288 45.7573 60.3739 46.1069 61.1303 46.4184L61.5775 45.3325ZM57.4171 43.1411C56.7586 42.7127 56.1193 42.2542 55.5034 41.7685L54.7762 42.6906C55.4201 43.1985 56.0885 43.6778 56.7767 44.1255L57.4171 43.1411ZM53.7249 40.2268C53.1539 39.6829 52.612 39.1145 52.1038 38.5248L51.2142 39.2915C51.7483 39.9112 52.3168 40.5074 52.9149 41.0771L53.7249 40.2268ZM50.6675 36.6706C50.2195 36.0228 49.8121 35.3563 49.4502 34.6744L48.4128 35.225C48.7973 35.9492 49.2287 36.6549 49.7017 37.3386L50.6675 36.6706ZM48.4923 32.5514C48.2196 31.8208 48.0002 31.0779 47.839 30.326L46.6907 30.5722C46.8645 31.3826 47.1003 32.1805 47.392 32.962L48.4923 32.5514ZM47.5342 28.0346C47.4951 27.2713 47.5186 26.502 47.6099 25.73L46.4437 25.592C46.3444 26.4313 46.3189 27.2668 46.3613 28.0946L47.5342 28.0346ZM48.073 23.4739C48.2845 22.7554 48.559 22.0359 48.9013 21.3181L47.8413 20.8126C47.4727 21.5856 47.1757 22.3632 46.9464 23.1423L48.073 23.4739ZM50.0511 19.2996C50.4672 18.6745 50.9392 18.0523 51.4707 17.4349L50.5806 16.6687C50.0189 17.3212 49.5174 17.9819 49.0735 18.6489L50.0511 19.2996ZM53.085 15.7502C53.6292 15.2368 54.2181 14.7281 54.8538 14.2256L54.1255 13.3043C53.4642 13.8271 52.8493 14.358 52.279 14.896L53.085 15.7502ZM56.7613 12.8328C57.403 12.399 58.0827 11.9709 58.8016 11.5496L58.2079 10.5364C57.4681 10.9699 56.7671 11.4113 56.1036 11.8599L56.7613 12.8328ZM60.8408 10.4281C61.5276 10.0733 62.245 9.72415 62.9937 9.38125L62.5046 8.31351C61.7398 8.66383 61.0057 9.02108 60.3017 9.38476L60.8408 10.4281ZM65.1733 8.43767C65.8885 8.14494 66.6288 7.85755 67.3948 7.57589L66.9896 6.47364C66.2107 6.76001 65.4572 7.05251 64.7284 7.3508L65.1733 8.43767ZM69.6511 6.78813C70.0389 6.65955 70.4327 6.53235 70.8324 6.40658L70.48 5.28631C70.0746 5.41386 69.6751 5.5429 69.2815 5.6734L69.6511 6.78813ZM70.8324 6.40658C71.2101 6.28776 71.5867 6.17105 71.9622 6.05642L71.6193 4.93319C71.2406 5.0488 70.8608 5.1665 70.48 5.28631L70.8324 6.40658ZM74.2026 5.39362C74.9544 5.17834 75.7017 4.97157 76.4447 4.77324L76.1418 3.63857C75.3919 3.83875 74.6378 4.04741 73.8793 4.2646L74.2026 5.39362ZM78.7113 4.19089C79.4693 4.00379 80.2227 3.82563 80.9712 3.65634L80.7122 2.51087C79.9561 2.68187 79.1953 2.86179 78.4299 3.05071L78.7113 4.19089ZM83.2599 3.16327C84.0247 3.00677 84.7844 2.85972 85.5389 2.72203L85.3281 1.56671C84.5653 1.70592 83.7974 1.85456 83.0245 2.01271L83.2599 3.16327ZM87.8446 2.32776C88.6163 2.20477 89.3823 2.09179 90.1427 1.98873L89.985 0.824978C89.2154 0.929278 88.4404 1.04359 87.6598 1.168L87.8446 2.32776ZM92.4593 1.70342C93.2373 1.61734 94.0092 1.54189 94.7748 1.47698L94.6756 0.306784C93.8998 0.372555 93.118 0.448983 92.3301 0.536148L92.4593 1.70342ZM97.0948 1.31133C97.8781 1.26603 98.6545 1.23203 99.4241 1.20923L99.3893 0.0353438C98.6085 0.0584759 97.8211 0.0929608 97.027 0.13889L97.0948 1.31133ZM101.739 1.1743C102.525 1.17404 103.304 1.18579 104.076 1.20944L104.112 0.0355962C103.328 0.0115694 102.537 -0.000363581 101.738 -9.98684e-05L101.739 1.1743ZM106.389 1.3173C107.171 1.36648 107.945 1.42825 108.711 1.5025L108.824 0.333583C108.045 0.258041 107.257 0.195214 106.462 0.145216L106.389 1.3173ZM111.019 1.76721C111.79 1.86954 112.552 1.98492 113.305 2.11322L113.502 0.955495C112.735 0.824749 111.958 0.707219 111.173 0.603029L111.019 1.76721ZM115.595 2.54849C116.357 2.70879 117.109 2.88281 117.852 3.0704L118.14 1.93174C117.381 1.74027 116.614 1.56273 115.836 1.39924L115.595 2.54849ZM120.084 3.68326C120.832 3.9055 121.57 4.14206 122.297 4.39279L122.68 3.28253C121.937 3.02624 121.183 2.78451 120.419 2.55751L120.084 3.68326ZM124.468 5.19553C125.19 5.48066 125.9 5.7804 126.599 6.09455L127.081 5.02326C126.365 4.70172 125.638 4.39503 124.9 4.10337L124.468 5.19553ZM128.693 7.09436C129.384 7.44469 130.064 7.80986 130.732 8.18969L131.312 7.16879C130.628 6.77966 129.932 6.40562 129.224 6.04686L128.693 7.09436ZM132.713 9.38088C133.367 9.79572 134.008 10.2255 134.638 10.6699L135.315 9.71051C134.67 9.25495 134.012 8.81451 133.342 8.38937L132.713 9.38088ZM136.494 12.0508C137.102 12.5264 137.697 13.0167 138.281 13.5215L139.049 12.6336C138.452 12.1162 137.841 11.6136 137.218 11.126L136.494 12.0508ZM139.993 15.0793C140.55 15.6113 141.094 16.1576 141.626 16.7179L142.478 15.9093C141.933 15.3353 141.375 14.7755 140.804 14.2302L139.993 15.0793ZM143.179 18.4346C143.682 19.0182 144.173 19.6155 144.651 20.2262L145.576 19.5021C145.086 18.8769 144.584 18.2654 144.068 17.6677L143.179 18.4346ZM146.035 22.0792C146.481 22.7052 146.914 23.3441 147.336 23.9957L148.322 23.358C147.891 22.6919 147.448 22.0385 146.992 21.3982L146.035 22.0792ZM148.554 25.973C148.942 26.6347 149.319 27.3084 149.683 27.994L150.72 27.4425C150.348 26.7426 149.963 26.0546 149.567 25.3786L148.554 25.973ZM150.73 30.0618C151.064 30.756 151.387 31.4613 151.698 32.1778L152.775 31.71C152.458 30.9798 152.129 30.2606 151.788 29.5525L150.73 30.0618ZM152.581 34.3196C152.86 35.0349 153.129 35.7605 153.386 36.4962L154.495 36.1082C154.232 35.3595 153.959 34.6208 153.675 33.8923L152.581 34.3196ZM154.119 38.7116C154.346 39.4423 154.564 40.1823 154.771 40.9315L155.903 40.6188C155.692 39.8574 155.471 39.1052 155.24 38.3621L154.119 38.7116ZM155.355 43.1845C155.536 43.9327 155.708 44.6896 155.869 45.455L157.018 45.2127C156.854 44.4359 156.68 43.6675 156.496 42.9076L155.355 43.1845ZM156.315 47.7326C156.453 48.4938 156.581 49.263 156.699 50.04L157.86 49.8631C157.74 49.0754 157.61 48.2955 157.471 47.5234L156.315 47.7326ZM157.018 52.334C157.114 53.1001 157.201 53.8733 157.279 54.6537L158.447 54.5371C158.369 53.7469 158.28 52.9638 158.183 52.1877L157.018 52.334ZM157.481 56.9705C157.511 57.3601 157.538 57.7513 157.563 58.1442L158.735 58.07C158.71 57.6725 158.682 57.2766 158.653 56.8824L157.481 56.9705ZM157.563 58.1442C157.588 58.5477 157.616 58.9488 157.646 59.3475L158.817 59.2599C158.787 58.8658 158.76 58.4691 158.735 58.07L157.563 58.1442ZM157.85 61.7099C157.926 62.4876 158.011 63.2556 158.104 64.014L159.269 63.8713C159.178 63.1223 159.094 62.3636 159.019 61.5951L157.85 61.7099ZM158.412 66.2988C158.53 67.0939 158.656 67.8781 158.792 68.6514L159.949 68.4482C159.815 67.6855 159.69 66.9118 159.574 66.1271L158.412 66.2988ZM159.227 70.9389C159.382 71.7007 159.547 72.4514 159.721 73.1913L160.864 72.9229C160.693 72.1942 160.531 71.4545 160.377 70.7037L159.227 70.9389ZM160.301 75.5016C160.504 76.2598 160.717 77.0059 160.939 77.7404L162.063 77.4003C161.844 76.678 161.635 75.9439 161.435 75.1977L160.301 75.5016ZM161.649 79.9562C161.906 80.7128 162.173 81.4562 162.45 82.1866L163.548 81.77C163.276 81.0527 163.014 80.3224 162.762 79.5789L161.649 79.9562ZM163.312 84.3393C163.62 85.0714 163.939 85.7897 164.268 86.4944L165.332 85.9975C165.009 85.3064 164.696 84.6017 164.394 83.8833L163.312 84.3393ZM165.304 88.6043C165.662 89.2989 166.031 89.9795 166.409 90.6465L167.431 90.0667C167.06 89.4135 166.699 88.7467 166.348 88.0659L165.304 88.6043ZM167.623 92.6839C168.038 93.3483 168.463 93.9982 168.898 94.6337L169.867 93.9702C169.441 93.3483 169.025 92.7123 168.619 92.0618L167.623 92.6839ZM170.273 96.5511C170.746 97.1812 171.229 97.7962 171.722 98.3963L172.63 97.6509C172.148 97.064 171.675 96.4625 171.212 95.8461L170.273 96.5511ZM173.25 100.175C173.777 100.762 174.315 101.335 174.861 101.892L175.7 101.069C175.165 100.524 174.639 99.9648 174.124 99.3902L173.25 100.175ZM176.535 103.525C177.112 104.063 177.699 104.587 178.294 105.095L179.057 104.203C178.475 103.705 177.901 103.193 177.337 102.666L176.535 103.525ZM180.103 106.576C180.723 107.062 181.352 107.533 181.988 107.99L182.673 107.035C182.05 106.588 181.434 106.127 180.827 105.652L180.103 106.576ZM183.92 109.315C184.576 109.746 185.24 110.163 185.91 110.566L186.515 109.559C185.858 109.164 185.208 108.756 184.565 108.334L183.92 109.315ZM187.943 111.733C188.63 112.11 189.323 112.474 190.021 112.824L190.547 111.774C189.862 111.43 189.182 111.074 188.508 110.704L187.943 111.733ZM192.136 113.836C192.847 114.161 193.564 114.473 194.285 114.772L194.735 113.688C194.027 113.393 193.323 113.087 192.623 112.767L192.136 113.836ZM196.464 115.635C197.195 115.91 197.931 116.173 198.669 116.425L199.047 115.313C198.321 115.066 197.597 114.807 196.878 114.536L196.464 115.635ZM200.898 117.146C201.645 117.375 202.394 117.593 203.145 117.799L203.456 116.667C202.716 116.463 201.978 116.249 201.242 116.023L200.898 117.146ZM205.412 118.388C206.17 118.574 206.93 118.749 207.69 118.914L207.938 117.766C207.188 117.604 206.439 117.431 205.691 117.248L205.412 118.388ZM209.985 119.381C210.751 119.527 211.518 119.662 212.283 119.789L212.474 118.63C211.718 118.505 210.961 118.371 210.204 118.227L209.985 119.381ZM214.6 120.143C215.372 120.251 216.143 120.351 216.911 120.441L217.049 119.275C216.289 119.185 215.527 119.087 214.764 118.98L214.6 120.143ZM219.244 120.691C220.019 120.765 220.792 120.831 221.561 120.889L221.65 119.718C220.888 119.661 220.124 119.596 219.356 119.522L219.244 120.691ZM223.905 121.042C224.683 121.085 225.457 121.12 226.225 121.147L226.268 119.974C225.506 119.946 224.74 119.912 223.969 119.869L223.905 121.042ZM228.574 121.21C229.355 121.223 230.13 121.229 230.897 121.229L230.896 120.054C230.136 120.055 229.368 120.049 228.594 120.035L228.574 121.21ZM233.245 121.207C234.029 121.193 234.805 121.172 235.571 121.145L235.53 119.972C234.77 119.998 234.001 120.019 233.224 120.033L233.245 121.207ZM237.909 121.044C238.699 121.004 239.477 120.957 240.242 120.905L240.163 119.734C239.404 119.785 238.632 119.831 237.848 119.871L237.909 121.044ZM242.554 120.731C243.354 120.664 244.136 120.592 244.9 120.516L244.784 119.348C244.026 119.423 243.25 119.494 242.456 119.56L242.554 120.731ZM247.208 120.269C248.003 120.178 248.774 120.083 249.519 119.986L249.367 118.821C248.628 118.918 247.863 119.012 247.074 119.103L247.208 120.269ZM251.852 119.663C252.663 119.544 253.435 119.424 254.164 119.305L253.975 118.146C253.252 118.264 252.486 118.383 251.682 118.501L251.852 119.663ZM256.464 118.91C257.32 118.756 258.09 118.608 258.767 118.472L258.536 117.321C257.866 117.455 257.104 117.601 256.256 117.754L256.464 118.91Z" fill="black"/>
</svg>
