<svg width="91" height="83" viewBox="0 0 91 83" fill="none" xmlns="http://www.w3.org/2000/svg">
<path d="M33.8957 73.4388C48.2921 73.4388 58.3883 63.8101 58.3883 51.6572C58.3883 39.6914 49.3204 31.1844 36.4197 31.1844C35.3914 31.1844 34.3631 31.2779 33.3348 31.6518L51.4705 9.4963H36.7936L17.7231 32.4932C11.8336 39.5044 9.49654 44.5525 9.49654 52.4986C9.49654 63.8101 19.4992 73.4388 33.8957 73.4388ZM33.9891 62.5948C28.0997 62.5948 23.0516 58.8554 23.0516 52.0312C23.0516 44.646 28.0997 41.3741 33.9891 41.3741C39.8786 41.3741 44.9267 44.9264 44.9267 52.1247C44.9267 58.8554 39.8786 62.5948 33.9891 62.5948Z" fill="#EAEAEA"/>
<path d="M81.5035 64.371C81.5035 59.1359 77.9511 55.49 72.8095 55.49C67.6679 55.49 64.0221 59.1359 64.0221 64.371C64.0221 69.5125 67.6679 73.1584 72.8095 73.1584C77.9511 73.1584 81.5035 69.5125 81.5035 64.371Z" fill="#EAEAEA"/>
</svg>
