<svg width="17" height="17" viewBox="0 0 17 17" fill="none" xmlns="http://www.w3.org/2000/svg">
<path d="M5.74187 8.72107C5.61977 7.19852 6.75434 5.86499 8.27645 5.74293C9.79856 5.62086 11.1318 6.75648 11.2539 8.27903C11.376 9.80158 10.2408 11.1352 8.71867 11.2572C7.19656 11.3793 5.86397 10.2436 5.74187 8.72107ZM4.25184 8.84056C4.43995 11.1861 6.49323 12.9351 8.83814 12.747C11.1831 12.559 12.9314 10.5052 12.7433 8.15959C12.5552 5.814 10.5019 4.06508 8.15698 4.25313C5.81206 4.44118 4.06374 6.49497 4.25184 8.84056ZM11.5651 3.81035C11.5807 4.00665 11.6542 4.1939 11.7763 4.34842C11.8983 4.50294 12.0635 4.61779 12.2508 4.67844C12.4381 4.7391 12.6391 4.74283 12.8286 4.68918C13.018 4.63553 13.1872 4.52689 13.3149 4.37701C13.4426 4.22713 13.523 4.04274 13.5459 3.84715C13.5688 3.65157 13.5333 3.45357 13.4437 3.2782C13.3541 3.10284 13.2146 2.95797 13.0427 2.86193C12.8708 2.76589 12.6744 2.72299 12.4781 2.73865L12.4777 2.73868C12.2147 2.7599 11.9708 2.88468 11.7997 3.08561C11.6286 3.28655 11.5442 3.54721 11.5651 3.81035ZM5.69702 15.5002C4.88794 15.5281 4.43901 15.4289 4.13873 15.3388C3.74064 15.2194 3.45085 15.0625 3.13806 14.7964C2.82527 14.5304 2.62393 14.2695 2.44334 13.8953C2.30649 13.6133 2.13705 13.1857 2.03574 12.3822C1.92574 11.5136 1.89673 11.2524 1.71961 9.0437C1.54248 6.835 1.5302 6.57315 1.49965 5.69746C1.4717 4.88815 1.57188 4.43974 1.66091 4.13873C1.78023 3.74053 1.93713 3.45066 2.2031 3.1378C2.46906 2.82493 2.72985 2.62355 3.10455 2.44287C3.38649 2.30599 3.81401 2.13652 4.6172 2.03522C5.48554 1.92523 5.74671 1.89623 7.95377 1.71923C10.1608 1.54224 10.4236 1.52989 11.2991 1.49937C12.1081 1.47145 12.5564 1.57168 12.8573 1.66075C13.2554 1.77946 13.5452 1.93708 13.858 2.20313C14.1708 2.46919 14.3715 2.73078 14.5528 3.10487C14.6896 3.3869 14.8591 3.81455 14.9604 4.61798C15.0704 5.48729 15.0994 5.74781 15.2765 7.9565C15.4536 10.1652 15.4666 10.427 15.4965 11.3027C15.5244 12.1121 15.4246 12.5612 15.3352 12.8615C15.2159 13.2597 15.059 13.5495 14.793 13.8617C14.527 14.174 14.2655 14.3754 13.8915 14.5567C13.6096 14.6935 13.1821 14.863 12.3789 14.9643C11.5105 15.0743 11.2494 15.1033 9.04131 15.2804C6.83325 15.4575 6.57153 15.4704 5.69702 15.5002ZM4.42942 0.552765C3.55241 0.663451 2.96213 0.851297 2.45325 1.09787C1.92619 1.35264 1.48839 1.67282 1.06506 2.16932C0.641736 2.66581 0.396288 3.14984 0.228851 3.71092C0.0666193 4.25307 -0.0247284 4.86558 0.0057958 5.74927C0.03577 6.6344 0.0490528 6.91708 0.229176 9.16316C0.4093 11.4092 0.441236 11.6904 0.552704 12.569C0.663404 13.4463 0.851191 14.0364 1.09775 14.5458C1.35244 15.0727 1.67199 15.5119 2.16895 15.9344C2.66591 16.3569 3.14918 16.6028 3.71015 16.7709C4.25281 16.9332 4.86449 17.0246 5.74793 16.9941C6.63321 16.9635 6.91541 16.9509 9.16083 16.7708C11.4063 16.5908 11.6874 16.5588 12.5657 16.4474C13.4428 16.3367 14.0327 16.1489 14.5419 15.9023C15.0686 15.6469 15.5067 15.3273 15.9301 14.8308C16.3534 14.3343 16.5982 13.85 16.7663 13.2892C16.9285 12.7471 17.0205 12.1345 16.9893 11.2509C16.9586 10.3651 16.9454 10.0831 16.7653 7.83705C16.5852 5.59097 16.5532 5.30978 16.4424 4.43114C16.3317 3.55381 16.1439 2.96342 15.8974 2.45439C15.6421 1.92754 15.3225 1.48922 14.8262 1.06575C14.3298 0.642279 13.8456 0.396765 13.2856 0.229174C12.743 0.0669246 12.1306 -0.025139 11.2479 0.00596189C10.363 0.0365656 10.0804 0.0491776 7.83495 0.229249C5.58952 0.409321 5.30822 0.441269 4.42942 0.552765Z" fill="white"/>
</svg>
