<svg width="23" height="23" viewBox="0 0 23 23" fill="none" xmlns="http://www.w3.org/2000/svg">
<path fill-rule="evenodd" clip-rule="evenodd" d="M18.9674 5.1895C19.7916 5.41094 20.4436 6.06295 20.6651 6.88718C21.071 8.38804 21.0833 11.5005 21.0833 11.5005C21.0833 11.5005 21.0833 14.6252 20.6774 16.1137C20.4559 16.938 19.8039 17.59 18.9797 17.8114C17.4911 18.2174 11.5 18.2174 11.5 18.2174C11.5 18.2174 5.50895 18.2174 4.0204 17.8114C3.19616 17.59 2.54415 16.938 2.32272 16.1137C1.91675 14.6129 1.91675 11.5005 1.91675 11.5005C1.91675 11.5005 1.91675 8.38804 2.31041 6.89949C2.53185 6.07525 3.18386 5.42325 4.0081 5.20181C5.49664 4.79584 11.4877 4.78354 11.4877 4.78354C11.4877 4.78354 17.4788 4.78354 18.9674 5.1895ZM14.551 11.5005L9.58092 14.3791V8.62178L14.551 11.5005Z" fill="#14103D"/>
</svg>
