<svg width="32" height="32" viewBox="0 0 32 32" fill="none" xmlns="http://www.w3.org/2000/svg">
<g clip-path="url(#clip0_0_627)">
<path d="M16 32C24.8366 32 32 24.8366 32 16C32 7.16344 24.8366 0 16 0C7.16344 0 0 7.16344 0 16C0 24.8366 7.16344 32 16 32Z" fill="#F0F0F0"/>
<path d="M15.9998 0C9.6564 0 4.1754 3.69156 1.5874 9.0435H30.4121C27.8242 3.69156 22.3431 0 15.9998 0Z" fill="#FF9811"/>
<path d="M15.9998 32.0005C22.3431 32.0005 27.8242 28.309 30.4122 22.957H1.5874C4.1754 28.309 9.6564 32.0005 15.9998 32.0005Z" fill="#6DA544"/>
<path d="M15.9998 21.5659C19.0733 21.5659 21.5649 19.0743 21.5649 16.0007C21.5649 12.9272 19.0733 10.4355 15.9998 10.4355C12.9262 10.4355 10.4346 12.9272 10.4346 16.0007C10.4346 19.0743 12.9262 21.5659 15.9998 21.5659Z" fill="#0052B4"/>
<path d="M16.0002 19.478C17.9212 19.478 19.4785 17.9207 19.4785 15.9997C19.4785 14.0787 17.9212 12.5215 16.0002 12.5215C14.0792 12.5215 12.522 14.0787 12.522 15.9997C12.522 17.9207 14.0792 19.478 16.0002 19.478Z" fill="#F0F0F0"/>
<path d="M15.9998 11.707L17.0728 14.1407L19.7168 13.8531L18.1458 15.9992L19.7168 18.1452L17.0728 17.8577L15.9998 20.2913L14.9267 17.8577L12.2827 18.1452L13.8537 15.9992L12.2827 13.8531L14.9267 14.1407L15.9998 11.707Z" fill="#0052B4"/>
</g>
<defs>
<clipPath id="clip0_0_627">
<rect width="32" height="32" fill="white"/>
</clipPath>
</defs>
</svg>
